<?xml version="1.0" standalone="no"?>
<!DOCTYPE svg PUBLIC "-//W3C//DTD SVG 20010904//EN"
 "http://www.w3.org/TR/2001/REC-SVG-20010904/DTD/svg10.dtd">
<svg version="1.0" xmlns="http://www.w3.org/2000/svg"
 width="512.000000pt" height="512.000000pt" viewBox="0 0 512.000000 512.000000"
 preserveAspectRatio="xMidYMid meet">

<g transform="translate(0.000000,512.000000) scale(0.100000,-0.100000)"
fill="#000000" stroke="none">
<path d="M1013 5045 c-134 -41 -245 -163 -272 -298 -8 -36 -11 -711 -9 -2272
l3 -2220 22 -47 c46 -99 134 -167 245 -190 71 -15 136 -4 208 35 32 18 370
270 750 562 381 292 698 530 704 529 7 -1 335 -249 729 -552 394 -303 733
-561 754 -572 31 -17 56 -20 147 -20 133 0 171 15 245 96 89 97 82 -140 79
2414 l-3 2265 -27 55 c-37 74 -77 121 -140 163 -109 72 19 67 -1777 66 -1307
0 -1624 -3 -1658 -14z m3286 -230 c40 -20 79 -69 91 -114 7 -26 9 -745 8
-2236 l-3 -2197 -33 -29 c-40 -36 -77 -37 -126 -4 -25 17 -1382 1056 -1562
1197 -8 5 -282 -199 -790 -587 -429 -328 -789 -598 -801 -601 -33 -9 -71 3
-99 31 l-24 24 0 2201 c0 2173 0 2201 20 2240 18 36 55 70 90 83 8 3 732 6
1608 6 1380 1 1597 -1 1621 -14z"/>
</g>
</svg>
